<mxfile host="65bd71144e">
    <diagram id="HD0gOvrVzU3aG7307C1z" name="Page-1">
        <mxGraphModel dx="980" dy="677" grid="1" gridSize="10" guides="1" tooltips="1" connect="1" arrows="1" fold="1" page="1" pageScale="1" pageWidth="1920" pageHeight="1200" math="0" shadow="0">
            <root>
                <mxCell id="0"/>
                <mxCell id="1" parent="0"/>
                <mxCell id="15" style="edgeStyle=none;html=1;" parent="1" source="2" target="21" edge="1">
                    <mxGeometry relative="1" as="geometry"/>
                </mxCell>
                <mxCell id="2" value="main" style="rounded=0;whiteSpace=wrap;html=1;" parent="1" vertex="1">
                    <mxGeometry x="1040" y="330" width="120" height="60" as="geometry"/>
                </mxCell>
                <mxCell id="3" value="DB" style="rounded=0;whiteSpace=wrap;html=1;" parent="1" vertex="1">
                    <mxGeometry x="960" y="530" width="120" height="60" as="geometry"/>
                </mxCell>
                <mxCell id="4" value="Session" style="rounded=0;whiteSpace=wrap;html=1;" parent="1" vertex="1">
                    <mxGeometry x="1120" y="530" width="120" height="60" as="geometry"/>
                </mxCell>
                <mxCell id="21" value="Server" style="rounded=0;whiteSpace=wrap;html=1;" parent="1" vertex="1">
                    <mxGeometry x="1040" y="430" width="120" height="60" as="geometry"/>
                </mxCell>
                <mxCell id="23" style="edgeStyle=none;html=1;" parent="1" source="21" target="4" edge="1">
                    <mxGeometry relative="1" as="geometry">
                        <mxPoint x="1210" y="470" as="sourcePoint"/>
                        <mxPoint x="1170" y="470" as="targetPoint"/>
                    </mxGeometry>
                </mxCell>
                <mxCell id="25" value="PlayerSession" style="rounded=0;whiteSpace=wrap;html=1;" vertex="1" parent="1">
                    <mxGeometry x="960" y="670" width="120" height="60" as="geometry"/>
                </mxCell>
                <mxCell id="26" value="NpcSession" style="rounded=0;whiteSpace=wrap;html=1;" vertex="1" parent="1">
                    <mxGeometry x="1120" y="670" width="120" height="60" as="geometry"/>
                </mxCell>
                <mxCell id="29" style="edgeStyle=none;html=1;endArrow=block;endFill=0;endSize=10;" edge="1" parent="1" source="26" target="4">
                    <mxGeometry relative="1" as="geometry">
                        <mxPoint x="1230" y="660" as="sourcePoint"/>
                        <mxPoint x="1150" y="600" as="targetPoint"/>
                    </mxGeometry>
                </mxCell>
                <mxCell id="31" style="edgeStyle=none;html=1;endArrow=block;endFill=0;endSize=10;" edge="1" parent="1" source="25" target="4">
                    <mxGeometry relative="1" as="geometry">
                        <mxPoint x="1144" y="750" as="sourcePoint"/>
                        <mxPoint x="1116" y="600" as="targetPoint"/>
                    </mxGeometry>
                </mxCell>
                <mxCell id="38" style="edgeStyle=none;html=1;startArrow=classic;startFill=1;" edge="1" parent="1" source="26" target="25">
                    <mxGeometry relative="1" as="geometry">
                        <mxPoint x="1190" y="740" as="sourcePoint"/>
                        <mxPoint x="1190" y="780" as="targetPoint"/>
                    </mxGeometry>
                </mxCell>
                <mxCell id="39" style="edgeStyle=none;html=1;" edge="1" parent="1" source="21" target="3">
                    <mxGeometry relative="1" as="geometry">
                        <mxPoint x="1050" y="559" as="sourcePoint"/>
                        <mxPoint x="950" y="541" as="targetPoint"/>
                    </mxGeometry>
                </mxCell>
                <mxCell id="41" style="edgeStyle=none;html=1;" edge="1" parent="1" source="25" target="3">
                    <mxGeometry relative="1" as="geometry">
                        <mxPoint x="1070" y="680" as="sourcePoint"/>
                        <mxPoint x="1070" y="600" as="targetPoint"/>
                    </mxGeometry>
                </mxCell>
            </root>
        </mxGraphModel>
    </diagram>
</mxfile>